<svg width="100" height="100" viewBox="0 0 100 100" fill="none" xmlns="http://www.w3.org/2000/svg">
<g id="_&#235;&#160;&#136;&#236;&#157;&#180;&#236;&#150;&#180;_1" clip-path="url(#clip0_591_4096)">
<g id="Group 1707478356">
<path id="Vector" d="M50.011 100.022C77.6314 100.022 100.022 77.6314 100.022 50.011C100.022 22.3907 77.6314 0 50.011 0C22.3907 0 0 22.3907 0 50.011C0 77.6314 22.3907 100.022 50.011 100.022Z" fill="#FFD332"/>
<g id="Group">
<path id="Vector_2" d="M71.9295 68.0044H28.1147C27.2107 68.0044 26.4609 67.2767 26.4609 66.3506C26.4609 65.4245 27.1886 64.6968 28.1147 64.6968H71.9295C72.8336 64.6968 73.5833 65.4245 73.5833 66.3506C73.5833 67.2767 72.8556 68.0044 71.9295 68.0044Z" fill="black"/>
<path id="Vector_3" d="M35.237 51.687C40.6807 51.687 45.0937 47.274 45.0937 41.8303C45.0937 36.3866 40.6807 31.9736 35.237 31.9736C29.7934 31.9736 25.3804 36.3866 25.3804 41.8303C25.3804 47.274 29.7934 51.687 35.237 51.687Z" fill="white"/>
<path id="Vector_4" d="M35.2372 47.4531C38.3427 47.4531 40.8601 44.9357 40.8601 41.8302C40.8601 38.7247 38.3427 36.2073 35.2372 36.2073C32.1317 36.2073 29.6143 38.7247 29.6143 41.8302C29.6143 44.9357 32.1317 47.4531 35.2372 47.4531Z" fill="black"/>
<g id="Group_2">
<path id="Vector_5" d="M64.8069 51.687C70.2506 51.687 74.6635 47.274 74.6635 41.8303C74.6635 36.3866 70.2506 31.9736 64.8069 31.9736C59.3632 31.9736 54.9502 36.3866 54.9502 41.8303C54.9502 47.274 59.3632 51.687 64.8069 51.687Z" fill="white"/>
<path id="Vector_6" d="M64.807 47.4531C67.9125 47.4531 70.4299 44.9357 70.4299 41.8302C70.4299 38.7247 67.9125 36.2073 64.807 36.2073C61.7016 36.2073 59.1841 38.7247 59.1841 41.8302C59.1841 44.9357 61.7016 47.4531 64.807 47.4531Z" fill="black"/>
</g>
<path id="Vector_7" d="M50.0111 55.4356C52.6538 55.4356 54.7961 54.0436 54.7961 52.3264C54.7961 50.6093 52.6538 49.2173 50.0111 49.2173C47.3684 49.2173 45.2261 50.6093 45.2261 52.3264C45.2261 54.0436 47.3684 55.4356 50.0111 55.4356Z" fill="#3284FF"/>
</g>
</g>
</g>
<defs>
<clipPath id="clip0_591_4096">
<rect width="100" height="100" fill="white"/>
</clipPath>
</defs>
</svg>
