<svg width="100" height="100" viewBox="0 0 100 100" fill="none" xmlns="http://www.w3.org/2000/svg">
<g id="_&#235;&#160;&#136;&#236;&#157;&#180;&#236;&#150;&#180;_1" clip-path="url(#clip0_591_4448)">
<g id="Group 1707478353">
<path id="Vector" d="M50.011 100.022C77.6314 100.022 100.022 77.6314 100.022 50.011C100.022 22.3907 77.6314 0 50.011 0C22.3907 0 0 22.3907 0 50.011C0 77.6314 22.3907 100.022 50.011 100.022Z" fill="#CDCDCD"/>
<g id="Group">
<path id="Vector_2" d="M36.9127 47.9824C42.2589 47.9824 46.5929 43.6484 46.5929 38.3021C46.5929 32.9558 42.2589 28.6218 36.9127 28.6218C31.5664 28.6218 27.2324 32.9558 27.2324 38.3021C27.2324 43.6484 31.5664 47.9824 36.9127 47.9824Z" fill="white"/>
<path id="Vector_3" d="M63.109 47.9824C68.4552 47.9824 72.7892 43.6484 72.7892 38.3021C72.7892 32.9558 68.4552 28.6218 63.109 28.6218C57.7627 28.6218 53.4287 32.9558 53.4287 38.3021C53.4287 43.6484 57.7627 47.9824 63.109 47.9824Z" fill="white"/>
<path id="Vector_4" d="M36.9125 43.9251C40.0179 43.9251 42.5354 41.4076 42.5354 38.3021C42.5354 35.1967 40.0179 32.6792 36.9125 32.6792C33.807 32.6792 31.2896 35.1967 31.2896 38.3021C31.2896 41.4076 33.807 43.9251 36.9125 43.9251Z" fill="black"/>
<path id="Vector_5" d="M63.1088 43.9251C66.2142 43.9251 68.7317 41.4076 68.7317 38.3021C68.7317 35.1967 66.2142 32.6792 63.1088 32.6792C60.0033 32.6792 57.4858 35.1967 57.4858 38.3021C57.4858 41.4076 60.0033 43.9251 63.1088 43.9251Z" fill="black"/>
<path id="Vector_6" d="M29.9886 70.6065C29.702 70.6065 29.4153 70.5183 29.1727 70.3419C28.5774 69.8788 28.4451 69.0409 28.8861 68.4235C29.1948 68.0266 36.3613 58.5889 49.6358 58.5889C63.616 58.5889 70.8265 68.0266 71.1132 68.4235C71.5763 69.0189 71.444 69.8788 70.8265 70.3419C70.2312 70.7829 69.3712 70.6727 68.9081 70.0773C68.842 69.9891 62.1827 61.3452 49.6138 61.3452C37.7505 61.3452 31.1132 69.9891 31.0471 70.0773C30.7824 70.4301 30.3635 70.6286 29.9445 70.6286L29.9886 70.6065Z" fill="black"/>
<path id="Vector_7" d="M50.0107 53.5171C52.8239 53.5171 55.1044 52.0362 55.1044 50.2095C55.1044 48.3827 52.8239 46.9019 50.0107 46.9019C47.1975 46.9019 44.917 48.3827 44.917 50.2095C44.917 52.0362 47.1975 53.5171 50.0107 53.5171Z" fill="#3284FF"/>
</g>
</g>
</g>
<defs>
<clipPath id="clip0_591_4448">
<rect width="100" height="100" fill="white"/>
</clipPath>
</defs>
</svg>
