<svg width="100" height="100" viewBox="0 0 100 100" fill="none" xmlns="http://www.w3.org/2000/svg">
<g id="Group 1707478351">
<path id="Vector" d="M50 100C77.6142 100 100 77.6142 100 50C100 22.3858 77.6142 0 50 0C22.3858 0 0 22.3858 0 50C0 77.6142 22.3858 100 50 100Z" fill="#CDCDCD"/>
<g id="Group">
<path id="Vector_2" d="M50.3746 70.8555C35.2291 70.8555 27.491 57.8705 27.1823 57.3194C26.7635 56.6139 27.006 55.71 27.7114 55.3132C28.4169 54.8943 29.3208 55.1368 29.7176 55.8423C29.7837 55.9525 36.9486 67.9014 50.3746 67.9014C63.0509 67.9014 70.1938 55.9525 70.2599 55.8423C70.6788 55.1368 71.5606 54.8943 72.2661 55.3132C72.9716 55.7321 73.2141 56.6139 72.7952 57.3194C72.4645 57.8705 64.7485 70.8555 50.3746 70.8555Z" fill="black"/>
<path id="Vector_3" d="M35.8908 48.2586C41.2724 48.2586 45.635 43.8959 45.635 38.5143C45.635 33.1327 41.2724 28.77 35.8908 28.77C30.5091 28.77 26.1465 33.1327 26.1465 38.5143C26.1465 43.8959 30.5091 48.2586 35.8908 48.2586Z" fill="white"/>
<path id="Vector_4" d="M64.087 48.2586C69.4687 48.2586 73.8313 43.8959 73.8313 38.5143C73.8313 33.1327 69.4687 28.77 64.087 28.77C58.7054 28.77 54.3428 33.1327 54.3428 38.5143C54.3428 43.8959 58.7054 48.2586 64.087 48.2586Z" fill="white"/>
<path id="Vector_5" d="M35.8907 44.136C38.9955 44.136 41.5124 41.619 41.5124 38.5143C41.5124 35.4095 38.9955 32.8926 35.8907 32.8926C32.786 32.8926 30.269 35.4095 30.269 38.5143C30.269 41.619 32.786 44.136 35.8907 44.136Z" fill="black"/>
<path id="Vector_6" d="M64.0875 44.136C67.1923 44.136 69.7092 41.619 69.7092 38.5143C69.7092 35.4095 67.1923 32.8926 64.0875 32.8926C60.9827 32.8926 58.4658 35.4095 58.4658 38.5143C58.4658 41.619 60.9827 44.136 64.0875 44.136Z" fill="black"/>
<path id="Vector_7" d="M50.0003 53.263C52.6546 53.263 54.8063 51.8614 54.8063 50.1325C54.8063 48.4035 52.6546 47.002 50.0003 47.002C47.3461 47.002 45.1943 48.4035 45.1943 50.1325C45.1943 51.8614 47.3461 53.263 50.0003 53.263Z" fill="#3284FF"/>
</g>
</g>
</svg>
