<svg width="100" height="100" viewBox="0 0 100 100" fill="none" xmlns="http://www.w3.org/2000/svg">
<g id="Group 1707478350">
<path id="Vector" d="M50 100C77.6142 100 100 77.6142 100 50C100 22.3858 77.6142 0 50 0C22.3858 0 0 22.3858 0 50C0 77.6142 22.3858 100 50 100Z" fill="#CDCDCD"/>
<g id="Group">
<path id="Vector_2" d="M71.9136 67.9895H28.1085C27.2046 67.9895 26.4551 67.262 26.4551 66.3361C26.4551 65.4101 27.1826 64.6826 28.1085 64.6826H71.9136C72.8175 64.6826 73.5671 65.4101 73.5671 66.3361C73.5671 67.262 72.8396 67.9895 71.9136 67.9895Z" fill="black"/>
<path id="Vector_3" d="M35.2295 51.6755C40.672 51.6755 45.084 47.2635 45.084 41.821C45.084 36.3786 40.672 31.9666 35.2295 31.9666C29.787 31.9666 25.375 36.3786 25.375 41.821C25.375 47.2635 29.787 51.6755 35.2295 51.6755Z" fill="white"/>
<path id="Vector_4" d="M35.2296 47.4426C38.3344 47.4426 40.8513 44.9257 40.8513 41.8209C40.8513 38.7161 38.3344 36.1992 35.2296 36.1992C32.1248 36.1992 29.6079 38.7161 29.6079 41.8209C29.6079 44.9257 32.1248 47.4426 35.2296 47.4426Z" fill="black"/>
<g id="Group_2">
<path id="Vector_5" d="M64.793 51.6755C70.2355 51.6755 74.6475 47.2635 74.6475 41.821C74.6475 36.3786 70.2355 31.9666 64.793 31.9666C59.3505 31.9666 54.9385 36.3786 54.9385 41.821C54.9385 47.2635 59.3505 51.6755 64.793 51.6755Z" fill="white"/>
<path id="Vector_6" d="M64.7931 47.4426C67.8979 47.4426 70.4148 44.9257 70.4148 41.8209C70.4148 38.7161 67.8979 36.1992 64.7931 36.1992C61.6883 36.1992 59.1714 38.7161 59.1714 41.8209C59.1714 44.9257 61.6883 47.4426 64.7931 47.4426Z" fill="black"/>
</g>
<path id="Vector_7" d="M50.0003 55.4232C52.6424 55.4232 54.7842 54.0315 54.7842 52.3148C54.7842 50.598 52.6424 49.2063 50.0003 49.2063C47.3582 49.2063 45.2163 50.598 45.2163 52.3148C45.2163 54.0315 47.3582 55.4232 50.0003 55.4232Z" fill="#3284FF"/>
</g>
</g>
</svg>
