<svg width="100" height="100" viewBox="0 0 100 100" fill="none" xmlns="http://www.w3.org/2000/svg">
<g id="Group 1707478352">
<path id="Vector" d="M50 100C77.6142 100 100 77.6142 100 50C100 22.3858 77.6142 0 50 0C22.3858 0 0 22.3858 0 50C0 77.6142 22.3858 100 50 100Z" fill="#FFD332"/>
<g id="Group">
<path id="Vector_2" d="M36.9047 47.9717C42.2498 47.9717 46.5828 43.6387 46.5828 38.2936C46.5828 32.9485 42.2498 28.6155 36.9047 28.6155C31.5596 28.6155 27.2266 32.9485 27.2266 38.2936C27.2266 43.6387 31.5596 47.9717 36.9047 47.9717Z" fill="white"/>
<path id="Vector_3" d="M63.0951 47.9717C68.4402 47.9717 72.7733 43.6387 72.7733 38.2936C72.7733 32.9485 68.4402 28.6155 63.0951 28.6155C57.75 28.6155 53.417 32.9485 53.417 38.2936C53.417 43.6387 57.75 47.9717 63.0951 47.9717Z" fill="white"/>
<path id="Vector_4" d="M36.9049 43.9153C40.0097 43.9153 42.5266 41.3983 42.5266 38.2936C42.5266 35.1888 40.0097 32.6719 36.9049 32.6719C33.8001 32.6719 31.2832 35.1888 31.2832 38.2936C31.2832 41.3983 33.8001 43.9153 36.9049 43.9153Z" fill="black"/>
<path id="Vector_5" d="M63.0953 43.9153C66.2001 43.9153 68.717 41.3983 68.717 38.2936C68.717 35.1888 66.2001 32.6719 63.0953 32.6719C59.9906 32.6719 57.4736 35.1888 57.4736 38.2936C57.4736 41.3983 59.9906 43.9153 63.0953 43.9153Z" fill="black"/>
<path id="Vector_6" d="M29.9825 70.5909C29.6959 70.5909 29.4093 70.5027 29.1668 70.3264C28.5715 69.8634 28.4392 69.0257 28.8802 68.4084C29.1888 68.0116 36.3537 58.5759 49.6253 58.5759C63.6024 58.5759 70.8114 68.0116 71.098 68.4084C71.5609 69.0036 71.4287 69.8634 70.8114 70.3264C70.2161 70.7673 69.3564 70.6571 68.8934 70.0618C68.8272 69.9736 62.1694 61.3317 49.6033 61.3317C37.7426 61.3317 31.1068 69.9736 31.0407 70.0618C30.7761 70.4146 30.3572 70.613 29.9384 70.613L29.9825 70.5909Z" fill="black"/>
<path id="Vector_7" d="M49.9998 53.5054C52.8124 53.5054 55.0924 52.0248 55.0924 50.1985C55.0924 48.3721 52.8124 46.8916 49.9998 46.8916C47.1873 46.8916 44.9072 48.3721 44.9072 50.1985C44.9072 52.0248 47.1873 53.5054 49.9998 53.5054Z" fill="#3284FF"/>
</g>
</g>
</svg>
