<svg width="100" height="100" viewBox="0 0 100 100" fill="none" xmlns="http://www.w3.org/2000/svg">
<g id="_&#235;&#160;&#136;&#236;&#157;&#180;&#236;&#150;&#180;_1" clip-path="url(#clip0_591_4459)">
<g id="Group 1707478354">
<path id="Vector" d="M50.011 100.022C77.6314 100.022 100.022 77.6314 100.022 50.011C100.022 22.3907 77.6314 0 50.011 0C22.3907 0 0 22.3907 0 50.011C0 77.6314 22.3907 100.022 50.011 100.022Z" fill="#FFD332"/>
<g id="Group">
<path id="Vector_2" d="M50.3861 70.8712C35.2372 70.8712 27.4974 57.8833 27.1887 57.3321C26.7698 56.6264 27.0123 55.7223 27.7179 55.3254C28.4236 54.9065 29.3276 55.149 29.7245 55.8547C29.7907 55.9649 36.9572 67.9164 50.3861 67.9164C63.0652 67.9164 70.2097 55.9649 70.2758 55.8547C70.6948 55.149 71.5768 54.9065 72.2824 55.3254C72.9881 55.7444 73.2306 56.6264 72.8117 57.3321C72.4809 57.8833 64.7631 70.8712 50.3861 70.8712Z" fill="black"/>
<path id="Vector_3" d="M35.8988 48.2692C41.2816 48.2692 45.6452 43.9056 45.6452 38.5228C45.6452 33.14 41.2816 28.7764 35.8988 28.7764C30.516 28.7764 26.1523 33.14 26.1523 38.5228C26.1523 43.9056 30.516 48.2692 35.8988 48.2692Z" fill="white"/>
<path id="Vector_4" d="M64.1014 48.2692C69.4842 48.2692 73.8478 43.9056 73.8478 38.5228C73.8478 33.14 69.4842 28.7764 64.1014 28.7764C58.7186 28.7764 54.355 33.14 54.355 38.5228C54.355 43.9056 58.7186 48.2692 64.1014 48.2692Z" fill="white"/>
<path id="Vector_5" d="M35.8988 44.1458C39.0043 44.1458 41.5217 41.6283 41.5217 38.5228C41.5217 35.4174 39.0043 32.8999 35.8988 32.8999C32.7934 32.8999 30.2759 35.4174 30.2759 38.5228C30.2759 41.6283 32.7934 44.1458 35.8988 44.1458Z" fill="black"/>
<path id="Vector_6" d="M64.1014 44.1458C67.2069 44.1458 69.7244 41.6283 69.7244 38.5228C69.7244 35.4174 67.2069 32.8999 64.1014 32.8999C60.996 32.8999 58.4785 35.4174 58.4785 38.5228C58.4785 41.6283 60.996 44.1458 64.1014 44.1458Z" fill="black"/>
<path id="Vector_7" d="M50.0112 53.2746C52.666 53.2746 54.8182 51.8727 54.8182 50.1434C54.8182 48.4141 52.666 47.0122 50.0112 47.0122C47.3563 47.0122 45.2041 48.4141 45.2041 50.1434C45.2041 51.8727 47.3563 53.2746 50.0112 53.2746Z" fill="#3284FF"/>
</g>
</g>
</g>
<defs>
<clipPath id="clip0_591_4459">
<rect width="100" height="100" fill="white"/>
</clipPath>
</defs>
</svg>
