<svg width="24" height="24" viewBox="0 0 24 24" fill="none" xmlns="http://www.w3.org/2000/svg">
<mask id="mask0_58_1189" style="mask-type:alpha" maskUnits="userSpaceOnUse" x="0" y="0" width="24" height="24">
<rect width="24" height="24" fill="#CDCDCD"/>
</mask>
<g mask="url(#mask0_58_1189)">
<path d="M5.00171 21.9998C4.16838 21.9998 3.46004 21.7081 2.87671 21.1248C2.29338 20.5414 2.00171 19.8331 2.00171 18.9998V4.99976C2.00171 4.16642 2.29338 3.45809 2.87671 2.87476C3.46004 2.29142 4.16838 1.99976 5.00171 1.99976H19.0017C19.835 1.99976 20.5434 2.29142 21.1267 2.87476C21.71 3.45809 22.0017 4.16642 22.0017 4.99976V18.9998C22.0017 19.8331 21.71 20.5414 21.1267 21.1248C20.5434 21.7081 19.835 21.9998 19.0017 21.9998H5.00171ZM5.00171 19.9998H19.0017C19.285 19.9998 19.5224 19.9038 19.7137 19.7118C19.9057 19.5204 20.0017 19.2831 20.0017 18.9998V4.99976C20.0017 4.71642 19.9057 4.47876 19.7137 4.28676C19.5224 4.09542 19.285 3.99976 19.0017 3.99976H5.00171C4.71838 3.99976 4.48071 4.09542 4.28871 4.28676C4.09738 4.47876 4.00171 4.71642 4.00171 4.99976V18.9998C4.00171 19.2831 4.09738 19.5204 4.28871 19.7118C4.48071 19.9038 4.71838 19.9998 5.00171 19.9998ZM6.00171 17.9998L10.0017 13.9998L11.8017 15.7748L14.0017 12.9998L18.0017 17.9998H6.00171ZM8.00171 9.99976C7.45171 9.99976 6.98104 9.80376 6.58971 9.41176C6.19771 9.02042 6.00171 8.54976 6.00171 7.99976C6.00171 7.44976 6.19771 6.97909 6.58971 6.58776C6.98104 6.19576 7.45171 5.99976 8.00171 5.99976C8.55171 5.99976 9.02271 6.19576 9.41471 6.58776C9.80604 6.97909 10.0017 7.44976 10.0017 7.99976C10.0017 8.54976 9.80604 9.02042 9.41471 9.41176C9.02271 9.80376 8.55171 9.99976 8.00171 9.99976Z" fill="#CDCDCD"/>
</g>
</svg>
