<svg width="106" height="150" viewBox="0 0 106 150" fill="none" xmlns="http://www.w3.org/2000/svg">
<path d="M24.9999 28.0682C25.0065 32.9303 26.4115 37.6879 29.0321 41.7854L49.7399 74.0893C51.3137 76.5444 54.9011 76.5444 56.4749 74.0893L77.1827 41.7854C79.8032 37.6944 81.2083 32.9369 81.2148 28.0682C81.2148 12.5474 68.6282 0.00653509 53.1074 0C37.5865 0.00653509 24.9999 12.5474 24.9999 28.0682ZM41.6906 27.5324C41.6906 21.226 46.801 16.1155 53.1074 16.1155C59.4137 16.1155 64.5242 21.226 64.5242 27.5324C64.5242 33.8387 59.4137 38.9492 53.1074 38.9492C46.801 38.9492 41.6906 33.8387 41.6906 27.5324Z" fill="#FFD332"/>
<path d="M80.8769 52.1845C79.1068 51.0803 76.812 51.6965 75.6911 53.4561L56.2474 83.9813C54.684 86.4357 51.1063 86.4524 49.5201 84.0127L29.7664 53.6303C28.6301 51.8825 26.332 51.2871 24.5725 52.405C9.80276 61.7887 0 78.2963 0 97.0919C0 126.31 23.6897 150 52.9081 150C82.1265 150 105.816 126.31 105.816 97.0919C105.816 78.1404 95.8497 61.525 80.8769 52.1845Z" fill="#3284FF"/>
</svg>
