<svg width="20" height="20" viewBox="0 0 20 20" fill="none" xmlns="http://www.w3.org/2000/svg">
<g id="Feather Icons / thumbs-up">
<path id="Vector" d="M5.83268 18.3337H3.33268C2.89065 18.3337 2.46673 18.1581 2.15417 17.8455C1.84161 17.5329 1.66602 17.109 1.66602 16.667V10.8337C1.66602 10.3916 1.84161 9.96771 2.15417 9.65515C2.46673 9.34259 2.89065 9.16699 3.33268 9.16699H5.83268M11.666 7.50033V4.16699C11.666 3.50395 11.4026 2.86807 10.9338 2.39923C10.4649 1.93038 9.82906 1.66699 9.16602 1.66699L5.83268 9.16699V18.3337H15.2327C15.6346 18.3382 16.0247 18.1973 16.3309 17.937C16.6372 17.6767 16.8391 17.3144 16.8993 16.917L18.0493 9.41699C18.0856 9.17812 18.0695 8.93423 18.0021 8.7022C17.9348 8.47018 17.8178 8.25557 17.6592 8.07325C17.5007 7.89094 17.3044 7.74527 17.084 7.64634C16.8636 7.54741 16.6243 7.49759 16.3827 7.50033H11.666Z" stroke="#989898" stroke-width="1.5" stroke-linecap="round" stroke-linejoin="round"/>
</g>
</svg>
