<svg width="45" height="70" viewBox="0 0 45 70" fill="none" xmlns="http://www.w3.org/2000/svg">
<g id="_&#235;&#160;&#136;&#236;&#157;&#180;&#236;&#150;&#180;_1" clip-path="url(#clip0_591_6048)">
<path id="Vector" d="M10.7532 11.8795C14.0337 11.8795 16.693 9.22018 16.693 5.93975C16.693 2.65932 14.0337 0 10.7532 0C7.47279 0 4.81348 2.65932 4.81348 5.93975C4.81348 9.22018 7.47279 11.8795 10.7532 11.8795Z" fill="white"/>
<path id="Vector_2" d="M8.22846 45.5817L6.31357 45.436C2.53424 45.149 -0.28877 42.2295 0.0419639 38.948L1.87165 20.7913C2.20238 17.5097 5.56577 15.0601 9.3451 15.3471L11.26 15.4928C15.0393 15.7798 17.8623 18.6993 17.5316 21.9808L15.7019 40.1375C15.3712 43.4191 12.0078 45.8687 8.22846 45.5817Z" fill="white"/>
<path id="Vector_3" d="M34.289 30.6795L33.8249 31.452C32.9975 32.8276 31.1465 33.3041 29.7126 32.5092L11.5761 22.4617C10.1421 21.6668 9.64659 19.892 10.474 18.5164L10.9381 17.7439C11.7655 16.3683 13.6165 15.8918 15.0504 16.6867L33.187 26.7343C34.6209 27.5292 35.1164 29.3039 34.289 30.6795Z" fill="white"/>
<path id="Vector_4" d="M43.6189 69.9598C42.9529 70.1313 42.2623 69.7479 42.084 69.11L32.0152 33.0511C31.8369 32.412 32.236 31.7494 32.9008 31.579C33.5668 31.4075 34.2574 31.7909 34.4357 32.4289L44.5045 68.4878C44.6828 69.1268 44.2837 69.7894 43.6189 69.9598Z" fill="white"/>
<path id="Vector_5" d="M3.60107 37.5991H3.14029C1.40595 37.5991 0 39.0051 0 40.7394V66.7754C0 68.5097 1.40595 69.9157 3.14029 69.9157H3.60107C5.3354 69.9157 6.74136 68.5097 6.74136 66.7754V40.7394C6.74136 39.0051 5.3354 37.5991 3.60107 37.5991Z" fill="white"/>
<path id="Vector_6" d="M12.3872 37.5991H11.9264C10.1921 37.5991 8.78613 39.0051 8.78613 40.7394V66.7754C8.78613 68.5097 10.1921 69.9157 11.9264 69.9157H12.3872C14.1215 69.9157 15.5275 68.5097 15.5275 66.7754V40.7394C15.5275 39.0051 14.1215 37.5991 12.3872 37.5991Z" fill="white"/>
</g>
<defs>
<clipPath id="clip0_591_6048">
<rect width="44.547" height="70" fill="white"/>
</clipPath>
</defs>
</svg>
