<svg width="81" height="60" viewBox="0 0 81 60" fill="none" xmlns="http://www.w3.org/2000/svg">
<g id="_&#235;&#160;&#136;&#236;&#157;&#180;&#236;&#150;&#180;_1" clip-path="url(#clip0_591_6238)">
<g id="Group">
<path id="Vector" d="M53.787 18.9478H20.3526C16.3037 18.9478 13.0215 22.23 13.0215 26.2789V36.8768C13.0215 40.9257 16.3037 44.2079 20.3526 44.2079H53.787C57.8359 44.2079 61.1182 40.9257 61.1182 36.8768V26.2789C61.1182 22.23 57.8359 18.9478 53.787 18.9478Z" fill="white"/>
<path id="Vector_2" d="M29.0511 18.9478H2.53269C1.13392 18.9478 0 20.0813 0 21.4796C0 22.8779 1.13392 24.0115 2.53269 24.0115H29.0511C30.4498 24.0115 31.5837 22.8779 31.5837 21.4796C31.5837 20.0813 30.4498 18.9478 29.0511 18.9478Z" fill="white"/>
<path id="Vector_3" d="M17.0517 28.416H16.3224C14.4994 28.416 13.0215 29.8939 13.0215 31.717V56.6988C13.0215 58.5219 14.4994 59.9998 16.3224 59.9998H17.0517C18.8747 59.9998 20.3526 58.5219 20.3526 56.6988V31.717C20.3526 29.8939 18.8747 28.416 17.0517 28.416Z" fill="white"/>
<path id="Vector_4" d="M57.4673 28.416H57.438C55.4217 28.416 53.7871 30.0506 53.7871 32.0669V56.3488C53.7871 58.3652 55.4217 59.9998 57.438 59.9998H57.4673C59.4837 59.9998 61.1182 58.3652 61.1182 56.3488V32.0669C61.1182 30.0506 59.4837 28.416 57.4673 28.416Z" fill="white"/>
<path id="Vector_5" d="M68.2366 0.574466L49.2574 19.5537C48.4901 20.3209 48.4901 21.5648 49.2574 22.3321L49.2585 22.3332C50.0257 23.1005 51.2697 23.1005 52.0369 22.3332L71.0161 3.35402C71.7834 2.58678 71.7834 1.34285 71.0161 0.575616L71.015 0.574465C70.2477 -0.192769 69.0038 -0.192768 68.2366 0.574466Z" fill="white"/>
</g>
<path id="Vector_6" d="M79.4267 17.151L75.8604 20.7173C74.5029 22.0748 72.5627 22.3531 71.547 21.3391L63.1286 12.9223C62.1129 11.9066 62.3929 9.96638 63.7503 8.60889L67.3166 5.04261C68.6741 3.68512 70.6143 3.40678 71.63 4.42084L80.0484 12.8376C81.0641 13.8533 80.7841 15.7935 79.4267 17.151Z" fill="white"/>
<path id="Vector_7" d="M78.3846 27.0586L73.464 31.9791C71.5922 33.851 68.926 34.2481 67.5392 32.8613L56.0396 21.3633C54.6528 19.9765 55.05 17.3104 56.9218 15.4385L61.8423 10.518C63.7142 8.64616 66.3803 8.249 67.7671 9.63579L79.2668 21.1338C80.6536 22.5206 80.2564 25.1868 78.3846 27.0586Z" fill="white"/>
</g>
<defs>
<clipPath id="clip0_591_6238">
<rect width="80.6587" height="60" fill="white"/>
</clipPath>
</defs>
</svg>
