<svg width="49" height="70" viewBox="0 0 49 70" fill="none" xmlns="http://www.w3.org/2000/svg">
<g id="Group 1707478385">
<path id="Vector" d="M24.1692 16.0044C28.5887 16.0044 32.1714 12.4217 32.1714 8.00222C32.1714 3.58272 28.5887 0 24.1692 0C19.7497 0 16.167 3.58272 16.167 8.00222C16.167 12.4217 19.7497 16.0044 24.1692 16.0044Z" fill="white"/>
<path id="Vector_2" d="M28.255 18.7432H20.0861C17.0598 18.7432 14.6064 21.1965 14.6064 24.2229V48.7444C14.6064 51.7707 17.0598 54.2241 20.0861 54.2241H28.255C31.2814 54.2241 33.7347 51.7707 33.7347 48.7444V24.2229C33.7347 21.1965 31.2814 18.7432 28.255 18.7432Z" fill="white"/>
<path id="Vector_3" d="M20.1126 39.7827H19.82C18.3041 39.7827 17.0752 41.0116 17.0752 42.5275V67.2552C17.0752 68.7711 18.3041 70 19.82 70H20.1126C21.6285 70 22.8574 68.7711 22.8574 67.2552V42.5275C22.8574 41.0116 21.6285 39.7827 20.1126 39.7827Z" fill="white"/>
<path id="Vector_4" d="M45.7714 18.7432H26.7381C25.3198 18.7432 24.1699 19.893 24.1699 21.3114V21.3126C24.1699 22.731 25.3198 23.8808 26.7381 23.8808H45.7714C47.1897 23.8808 48.3396 22.731 48.3396 21.3126V21.3114C48.3396 19.893 47.1897 18.7432 45.7714 18.7432Z" fill="white"/>
<path id="Vector_5" d="M21.6014 18.7432H2.56822C1.14983 18.7432 0 19.893 0 21.3114V21.3126C0 22.731 1.14983 23.8808 2.56822 23.8808H21.6014C23.0198 23.8808 24.1697 22.731 24.1697 21.3126V21.3114C24.1697 19.893 23.0198 18.7432 21.6014 18.7432Z" fill="white"/>
<path id="Vector_6" d="M29.3147 39.7827H29.0591C27.5848 39.7827 26.3896 40.9779 26.3896 42.4522V67.3306C26.3896 68.8049 27.5848 70 29.0591 70H29.3147C30.789 70 31.9842 68.8049 31.9842 67.3306V42.4522C31.9842 40.9779 30.789 39.7827 29.3147 39.7827Z" fill="white"/>
</g>
</svg>
