<svg width="52" height="70" viewBox="0 0 52 70" fill="none" xmlns="http://www.w3.org/2000/svg">
<g id="_&#235;&#160;&#136;&#236;&#157;&#180;&#236;&#150;&#180;_1" clip-path="url(#clip0_591_6021)">
<path id="Vector" d="M19.1771 13.364C22.8675 13.364 25.8591 10.3724 25.8591 6.682C25.8591 2.99163 22.8675 0 19.1771 0C15.4867 0 12.4951 2.99163 12.4951 6.682C12.4951 10.3724 15.4867 13.364 19.1771 13.364Z" fill="white"/>
<path id="Vector_2" d="M20.321 17.0655L19.8331 17.1516C17.4907 17.5646 15.9266 19.7983 16.3396 22.1407L18.9256 36.8062C19.3386 39.1486 21.5723 40.7127 23.9147 40.2996L24.4026 40.2136C26.745 39.8006 28.3091 37.5669 27.896 35.2245L25.3101 20.559C24.8971 18.2166 22.6634 16.6525 20.321 17.0655Z" fill="white"/>
<path id="Vector_3" d="M38.9838 32.9673H22.8749C20.8325 32.9673 19.1768 34.623 19.1768 36.6654V36.6667C19.1768 38.7091 20.8325 40.3648 22.8749 40.3648H38.9838C41.0262 40.3648 42.6819 38.7091 42.6819 36.6667V36.6654C42.6819 34.623 41.0262 32.9673 38.9838 32.9673Z" fill="white"/>
<path id="Vector_4" d="M37.4924 33.2501L37.4913 33.2506C35.6402 34.1137 34.8394 36.3141 35.7025 38.1651L44.684 57.4258C45.5471 59.2769 47.7474 60.0777 49.5985 59.2146L49.5996 59.214C51.4507 58.3509 52.2515 56.1506 51.3883 54.2995L42.4069 35.0388C41.5438 33.1877 39.3435 32.3869 37.4924 33.2501Z" fill="white"/>
<path id="Vector_5" d="M43.0641 20.4536H24.9684C23.4746 20.4536 22.2637 21.6646 22.2637 23.1583V23.1596C22.2637 24.6534 23.4746 25.8643 24.9684 25.8643H43.0641C44.5579 25.8643 45.7689 24.6534 45.7689 23.1596V23.1583C45.7689 21.6646 44.5579 20.4536 43.0641 20.4536Z" fill="white"/>
<path id="Vector_6" d="M24.5047 69.9999C16.7854 69.9999 9.18419 66.3647 4.43109 59.5758C0.682689 54.2242 -0.757071 47.7321 0.37839 41.2965C1.51259 34.861 5.08622 29.2529 10.4391 25.5044C11.474 24.7802 12.8999 25.0317 13.6242 26.0665C14.3485 27.1014 14.097 28.5273 13.0621 29.2529C8.71014 32.2996 5.80547 36.8591 4.88377 42.0912C3.96081 47.3234 5.13148 52.6009 8.17824 56.9528C14.4679 65.9359 26.8951 68.1276 35.8782 61.8367C36.9131 61.1124 38.339 61.3639 39.0633 62.3988C39.7876 63.4336 39.5361 64.8596 38.5012 65.5851C34.2398 68.569 29.3484 70.0012 24.5035 70.0012L24.5047 69.9999Z" fill="white"/>
</g>
<defs>
<clipPath id="clip0_591_6021">
<rect width="51.732" height="70" fill="white"/>
</clipPath>
</defs>
</svg>
