<svg width="142" height="200" viewBox="0 0 142 200" fill="none" xmlns="http://www.w3.org/2000/svg">
<g id="Group 1707478199">
<path id="Vector" d="M33.3334 37.4243C33.3421 43.9071 35.2155 50.2505 38.7096 55.7139L67.4425 100.537C69.0162 102.992 72.6037 102.992 74.1775 100.537L102.91 55.7139C106.404 50.2592 108.278 43.9158 108.287 37.4243C108.287 16.7298 91.5044 0.00871346 70.81 0C50.1155 0.00871346 33.3334 16.7298 33.3334 37.4243ZM55.5875 36.7098C55.5875 28.3013 62.4015 21.4874 70.81 21.4874C79.2184 21.4874 86.0324 28.3013 86.0324 36.7098C86.0324 45.1183 79.2184 51.9322 70.81 51.9322C62.4015 51.9322 55.5875 45.1183 55.5875 36.7098Z" fill="#FFD332"/>
<path id="Vector_2" d="M106.786 68.9366C104.996 67.8635 102.704 68.4763 101.583 70.2359L73.8834 113.722C72.32 116.177 68.7424 116.193 67.1562 113.754L39.0179 70.4754C37.8816 68.7277 35.586 68.1356 33.8072 69.2226C13.5336 81.6124 0 103.955 0 129.456C0 168.414 31.5863 200 70.5442 200C109.502 200 141.088 168.414 141.088 129.456C141.088 103.746 127.332 81.2615 106.786 68.9366Z" fill="#3284FF"/>
</g>
</svg>
